<svg id="Layer_1" data-name="Layer 1" xmlns="http://www.w3.org/2000/svg" viewBox="0 0 24 24"><defs><style>.cls-1{fill:#63513d;}</style></defs><title>Search-Icon</title><g id="Group_391" data-name="Group 391"><g id="Group_391-2" data-name="Group 391-2"><path id="Path_236" data-name="Path 236" class="cls-1" d="M14.48,1.94a8.15,8.15,0,0,0-7,12.22L1.16,19.38l2.56,2.9,6.07-5.54a8.14,8.14,0,1,0,4.69-14.8M3.8,20.79l-1.16-1.3L8,15a8.75,8.75,0,0,0,1,1.06Zm10.68-3.6a7.1,7.1,0,1,1,7.1-7.1,7.1,7.1,0,0,1-7.1,7.1"/><path id="Path_237" data-name="Path 237" class="cls-1" d="M19,10.09a4.53,4.53,0,0,1-4.54,4.53v.93a5.47,5.47,0,0,0,5.47-5.46Z"/></g></g></svg>